<svg xmlns="http://www.w3.org/2000/svg" viewBox="0 0 105.68 105.68"><g id="Calque_2" data-name="Calque 2"><g id="Layer_1" data-name="Layer 1"><path d="M85.36,52.84a32.52,32.52,0,0,1-61.9,13.94c-.27-.55-.52-1.12-.75-1.7a32,32,0,0,1-2.16-8.41c0-.21-.05-.4-.06-.61a31,31,0,0,1-.17-3.22c0-.61,0-1.21.05-1.81L20.45,50a31.94,31.94,0,0,1,.79-4.84,32.43,32.43,0,0,1,1.69-5.07l0-.1a32.58,32.58,0,0,1,5.42-8.57l.08-.09a32.69,32.69,0,0,1,7.65-6.37c.12-.07.24-.15.37-.21a31.83,31.83,0,0,1,4.63-2.23h0a31.18,31.18,0,0,1,5.93-1.66h0a32.25,32.25,0,0,1,5.77-.52c.45,0,.9,0,1.34,0A32.49,32.49,0,0,1,85.36,52.84Z" fill="#008ece"/><g opacity="0.2"><path d="M52.84,20.32c.45,0,.9,0,1.34,0A32.52,32.52,0,1,1,23.46,66.78c-.27-.55-.52-1.12-.75-1.7a32,32,0,0,1-2.16-8.41c0-.21-.05-.4-.06-.61a31,31,0,0,1-.17-3.22c0-.61,0-1.21.05-1.81L20.45,50a31.94,31.94,0,0,1,.79-4.84,31.42,31.42,0,0,1,1.69-5.07l0-.1a32.58,32.58,0,0,1,5.42-8.57l.08-.09a32.69,32.69,0,0,1,7.65-6.37c.12-.07.24-.15.37-.21a31.83,31.83,0,0,1,4.63-2.23h0a31.49,31.49,0,0,1,5.94-1.66h0a32.25,32.25,0,0,1,5.77-.52M52.84,0a53.19,53.19,0,0,0-7.35.51h-.22L43.5.83a52.81,52.81,0,0,0-5.69,1.34h-.46L33.82,3.53A51.34,51.34,0,0,0,26.49,7l-.68.39,0,0-.09,0a53.5,53.5,0,0,0-6.46,4.57l0,0h0a54,54,0,0,0-5.71,5.5c-.2.21-.39.43-.58.65A53.29,53.29,0,0,0,4.31,31.91l0,.05,0,0,0,.11a53,53,0,0,0-4,16.11v.28L.1,49.56v.26c-.06,1-.09,2-.09,3,0,1.68.08,3.37.24,5,0,.41.08.82.13,1.25A52.71,52.71,0,0,0,3.88,72.74c.42,1,.84,2,1.28,2.87A52.86,52.86,0,1,0,55.06.05c-.74,0-1.48,0-2.22,0Z" fill="#3d6181"/></g><path d="M52.84,20.32c.45,0,.9,0,1.34,0A32.52,32.52,0,1,1,23.46,66.78c-.27-.55-.52-1.12-.75-1.7a32,32,0,0,1-2.16-8.41c0-.21-.05-.4-.06-.61a31,31,0,0,1-.17-3.22c0-.61,0-1.21.05-1.81L20.45,50a31.94,31.94,0,0,1,.79-4.84,31.42,31.42,0,0,1,1.69-5.07l0-.1a32.58,32.58,0,0,1,5.42-8.57l.08-.09a32.69,32.69,0,0,1,7.65-6.37c.12-.07.24-.15.37-.21a31.83,31.83,0,0,1,4.63-2.23h0a31.49,31.49,0,0,1,5.94-1.66h0a32.25,32.25,0,0,1,5.77-.52m0-7.62a39.4,39.4,0,0,0-6.41.52h0l-.67.11a39.11,39.11,0,0,0-5.95,1.55h-.07l-1.33.51a38.77,38.77,0,0,0-5.63,2.7l-.43.25,0,0,0,0,0,0a39.74,39.74,0,0,0-4.9,3.46,41.65,41.65,0,0,0-4.43,4.27c-.09.1-.2.21-.31.35A40.25,40.25,0,0,0,16,36.94l-.06.15a40,40,0,0,0-2.08,6.26,38.53,38.53,0,0,0-1,6v.11l-.08,1v.1c0,.72-.07,1.46-.07,2.26,0,1.3.07,2.61.19,3.9l.09.84A39.77,39.77,0,0,0,15.65,68c.32.78.63,1.48,1,2.15A40.16,40.16,0,1,0,54.49,12.74c-.52,0-1.09,0-1.65,0Z" fill="#3d4a81"/><line x1="33.5" y1="42.27" x2="25.34" y2="35.48" fill="none"/><line x1="36.58" y1="57.92" x2="21.24" y2="45.14" fill="none"/><path d="M22.93,40.07a32.43,32.43,0,0,0-1.69,5.07A31.94,31.94,0,0,0,20.45,50L20.37,51,31.8,60.55l1.53,1.27a5.07,5.07,0,0,0,7.15-.65A5.07,5.07,0,0,0,39.83,54l-7.57-6.77-.5-.51L23,40Z" fill="#32d5fc"/><polyline points="41.12 22.5 41.13 22.5 54.37 33.53" fill="none"/><path d="M58.27,36.79a5.1,5.1,0,0,1-3.91,1.83,4.46,4.46,0,0,1-.63,0,5.07,5.07,0,0,1-2.62-1.13l-15-12.5c.12-.07.24-.15.37-.21a31.83,31.83,0,0,1,4.63-2.23h0a31.18,31.18,0,0,1,5.93-1.66h0l0,0L59.79,29C61.94,30.75,60.07,34.63,58.27,36.79Z" fill="#32d5fc"/><line x1="26.93" y1="61.99" x2="20.55" y2="56.67" fill="none"/><path d="M20.45,50l9.73,8.11a5.08,5.08,0,1,1-6.5,7.8l-1-.81a32.77,32.77,0,0,1-2.39-12.24c0-.61,0-1.21.05-1.81Z" fill="#32d5fc"/><path d="M45.4,78.45a5.08,5.08,0,0,1-7.16.65L23.46,66.78c-.27-.55-.52-1.12-.75-1.7a32,32,0,0,1-2.16-8.41c0-.21-.05-.4-.06-.61a5.07,5.07,0,0,1,6.23.22l18,15A5.08,5.08,0,0,1,45.4,78.45Z" fill="#008ece"/><line x1="68.93" y1="32.18" x2="54.18" y2="20.35" fill="none"/><path d="M72.7,35.2a4.86,4.86,0,0,1-6.79.75L47.11,20.87l0,0a32.25,32.25,0,0,1,5.77-.52c.45,0,.9,0,1.34,0a32.36,32.36,0,0,1,10.41,2.16L72,28.41A4.84,4.84,0,0,1,72.7,35.2Z" fill="#32d5fc"/><line x1="64.02" y1="53.35" x2="32.15" y2="27.75" fill="none"/><path d="M67.2,49.39,53.73,38.57,36.49,24.73c-.13.06-.25.14-.37.21a32.69,32.69,0,0,0-7.65,6.37l.38.31-.46-.22A32.58,32.58,0,0,0,23,40l0,.1,7.32,6.11a5.07,5.07,0,0,0,.87.58h0a5.05,5.05,0,0,0,2.38.59,5.11,5.11,0,0,0,3.91-1.82,13.18,13.18,0,0,0,2.44-5.07l21,16.85a5.08,5.08,0,0,0,6.36-7.92Z" fill="#32d5fc"/><line x1="52.09" y1="30.71" x2="72.66" y2="47.59" fill="#d30079" stroke="#008ece" stroke-linecap="round" stroke-miterlimit="10" stroke-width="10.16"/><line x1="35.4" y1="43.19" x2="49.29" y2="55.21" fill="#d30079" stroke="#008ece" stroke-linecap="round" stroke-miterlimit="10" stroke-width="10.16"/></g></g></svg>