<svg xmlns="http://www.w3.org/2000/svg" viewBox="0 0 170.61 170.61"><g style="isolation:isolate"><g id="Calque_2" data-name="Calque 2"><g id="Calque_1-2" data-name="Calque 1"><path d="M37.38,95.05a.7.7,0,0,0,1,.17.69.69,0,0,0,.17-1,.7.7,0,1,0-1.15.81Z" fill="#c38bce"/><g opacity="0.1"><path d="M85.3,25.26A60.06,60.06,0,1,1,25.6,91.73l0-.33h0a58.29,58.29,0,0,1-.31-6.09A59.84,59.84,0,0,1,40,45.87l0,0a60,60,0,0,1,18.11-14.1l.42-.22A59.73,59.73,0,0,1,85.3,25.26M85.3,0a84.47,84.47,0,0,0-38,8.91l0,0h0l-.58.29a84.82,84.82,0,0,0-25.4,19.69l-.32.36h0a85.25,85.25,0,0,0-21,56c0,2.43.1,4.86.31,7.26v.15L.44,94v.1l0,.26v0h0a85.27,85.27,0,0,0,145.14,51.21A85.3,85.3,0,0,0,155,36.15,85.38,85.38,0,0,0,115.2,5.4,85,85,0,0,0,85.3,0Z" fill="#ff71a8"/></g><g opacity="0.4" style="mix-blend-mode:screen"><path d="M87.4,24A60.07,60.07,0,1,1,27.7,90.48c0-.1,0-.22,0-.32h0q-.3-3-.3-6.09A59.77,59.77,0,0,1,42.13,44.63a.05.05,0,0,1,0,0,60,60,0,0,1,18.1-14.1l.43-.21A59.67,59.67,0,0,1,87.4,24m0-9.09a68.47,68.47,0,0,0-30.76,7.21l-.52.26a68.92,68.92,0,0,0-20.64,16l-.29.33A69.11,69.11,0,0,0,18.27,84.06c0,2.19.1,4.39.3,6.53v0l.05.48,0,.13,0,.2a69.13,69.13,0,0,0,137.87-7.38A69.08,69.08,0,0,0,87.4,14.93Z" fill="#ff2ab4"/></g><path d="M107.61,27.54A60.15,60.15,0,0,0,59.85,30l-.43.21a60,60,0,0,0-18.1,14.1.05.05,0,0,0,0,0A59.77,59.77,0,0,0,26.52,83.78q0,3.09.3,6.09h0c0,.1,0,.22,0,.32a60,60,0,1,0,80.75-62.66Z" fill="#ff7864"/><g opacity="0.7"><path d="M34,95.34l-4.32-3.77a5.71,5.71,0,0,0-2.3-1.25l6.79,5.79C34.07,95.86,34,95.6,34,95.34ZM61.17,31.63A5.39,5.39,0,0,1,59.85,30h0l-.43.21,5.21,4.37.05,0ZM41.29,44.35l4.72,4,0,0-4.72-4A.05.05,0,0,0,41.29,44.35Zm66.32-16.81,13,10.81a5.37,5.37,0,0,1,1.83,5.21,54.62,54.62,0,0,1,8.2,9.21A53.86,53.86,0,1,1,38,107.08q-1-2.13-1.86-4.35A6.26,6.26,0,0,0,34.55,104a5.93,5.93,0,0,0-.44,7.23l-1.69-1.48a60.05,60.05,0,1,0,75.19-82.23ZM34,95.34l-4.32-3.77a5.71,5.71,0,0,0-2.3-1.25l6.79,5.79C34.07,95.86,34,95.6,34,95.34Zm-7.14-5.46c0,.1,0,.22,0,.33a4.15,4.15,0,0,1,.48.11Z" fill="#ffaf64"/></g><line x1="82.88" y1="101.61" x2="80.62" y2="99.72" fill="#ff00af" stroke="#ffaf64" stroke-linecap="round" stroke-miterlimit="10" stroke-width="11.32"/><path d="M36.14,102.73A6.26,6.26,0,0,0,34.55,104a5.93,5.93,0,0,0-.44,7.23l-1.69-1.48a59.68,59.68,0,0,1-5.56-19.56,4.15,4.15,0,0,1,.48.11l6.79,5.79A52.1,52.1,0,0,0,36.14,102.73Z" fill="#ffc467"/><path d="M44.8,105.08l-1.86-1.63a6.31,6.31,0,0,0-1.11-.77,6,6,0,0,0-5.69,0,52.1,52.1,0,0,1-2-6.62l-6.79-5.79a5.71,5.71,0,0,1,2.3,1.25L34,95.34l9.83,8.58A6.14,6.14,0,0,1,44.8,105.08Z" fill="#ffb37e"/><path d="M46,48.36s0,0,0,0l-.42.48A53.8,53.8,0,0,0,32.71,83.78,54.54,54.54,0,0,0,33,89.24l0,.3h0A53.71,53.71,0,0,0,34,95.34l-4.32-3.77a5.71,5.71,0,0,0-2.3-1.25l-.52-.44h0q-.3-3-.3-6.09A59.77,59.77,0,0,1,41.29,44.35Z" fill="#ffc467"/><path d="M72.76,93.11a5.65,5.65,0,0,1-8,.64l-1.68-1.42a5.65,5.65,0,0,1-5.41,7.29,5.58,5.58,0,0,1-3.13-1l3.69,3.16a5.66,5.66,0,0,1-7.34,8.61l-9.09-7.76-7.7-6.57-6.79-5.79a5.71,5.71,0,0,1,2.3,1.25L34,95.34A53.71,53.71,0,0,1,33,89.55h0l0-.3a54.54,54.54,0,0,1-.27-5.46A53.8,53.8,0,0,1,45.57,48.86l.42-.48s0,0,0,0L68.12,67.13a5.66,5.66,0,0,1-6,9.45l10,8.55A5.66,5.66,0,0,1,72.76,93.11Z" fill="#ffb37e"/><path d="M122.39,43.56A54.07,54.07,0,0,0,74.23,31.34a52.61,52.61,0,0,0-9.55,3.22l-3.51-2.93A5.39,5.39,0,0,1,59.85,30h0a60.15,60.15,0,0,1,47.76-2.46l13,10.81A5.37,5.37,0,0,1,122.39,43.56Z" fill="#ffc467"/><path d="M122.39,43.56a5.42,5.42,0,0,1-1.15,2.36,5.37,5.37,0,0,1-7.57.68l-4.89-4.08a6.77,6.77,0,0,1-6.19,9.57h-.12l5.45,4.55A5.37,5.37,0,1,1,101,64.9L64.68,34.56a52.61,52.61,0,0,1,9.55-3.22,53.94,53.94,0,0,1,48.16,12.22Z" fill="#ffb37e"/><path d="M64.63,34.58c-.68.31-1.35.63-2,1l-.33.16,0,0,0,0A53.62,53.62,0,0,0,46,48.32l-4.72-4a60.2,60.2,0,0,1,18.1-14.1Z" fill="#ffc467"/><path d="M102.19,88.58a5.65,5.65,0,0,1-4.31,2,5.59,5.59,0,0,1-3.66-1.35L46,48.32A53.62,53.62,0,0,1,62.22,35.74l0,0,0,0,.33-.16c.67-.33,1.34-.65,2-1L92.46,58a5.65,5.65,0,1,1-7.27,8.66L74.84,57.93l26.7,22.67A5.66,5.66,0,0,1,102.19,88.58Z" fill="#ffb37e"/><line x1="53.85" y1="91.39" x2="73.92" y2="108.11" fill="#ff0747" stroke="#ff7864" stroke-linecap="round" stroke-miterlimit="10" stroke-width="10.75"/><line x1="62.53" y1="69.69" x2="82.6" y2="86.42" fill="#ff0747" stroke="#ff7864" stroke-linecap="round" stroke-miterlimit="10" stroke-width="11.32"/><line x1="85.73" y1="59.7" x2="108.63" y2="78.5" fill="#ff0747" stroke="#ff7864" stroke-linecap="round" stroke-miterlimit="10" stroke-width="11.32"/><line x1="102.7" y1="44.99" x2="113.68" y2="54.1" fill="#ff0747" stroke="#ff7864" stroke-linecap="round" stroke-miterlimit="10" stroke-width="11.32"/></g></g></g></svg>