<svg xmlns="http://www.w3.org/2000/svg" xmlns:xlink="http://www.w3.org/1999/xlink" viewBox="0 0 210.84 188.55"><defs><filter id="luminosity-noclip" x="18.61" y="15.87" width="174.85" height="154.92" filterUnits="userSpaceOnUse" color-interpolation-filters="sRGB"><feFlood flood-color="#fff" result="bg"/><feBlend in="SourceGraphic" in2="bg"/></filter><mask id="mask" x="18.61" y="15.87" width="174.85" height="154.92" maskUnits="userSpaceOnUse"><line x1="186.9" y1="164.24" x2="25.17" y2="22.43" fill="none" stroke="#231f20" stroke-linecap="round" stroke-miterlimit="10" stroke-width="13.12" filter="url(#luminosity-noclip)"/></mask><filter id="luminosity-noclip-2" x="0" y="0" width="210.84" height="188.55" filterUnits="userSpaceOnUse" color-interpolation-filters="sRGB"><feFlood flood-color="#fff" result="bg"/><feBlend in="SourceGraphic" in2="bg"/></filter><mask id="mask-2" x="0" y="0" width="210.84" height="188.55" maskUnits="userSpaceOnUse"><line x1="186.9" y1="164.24" x2="25.17" y2="22.43" fill="none" stroke="#231f20" stroke-linecap="round" stroke-miterlimit="10" stroke-width="13.12" filter="url(#luminosity-noclip-2)"/></mask></defs><g style="isolation:isolate"><g id="Calque_2" data-name="Calque 2"><g id="Layer_1" data-name="Layer 1"><g mask="url(#mask)"><rect x="100.18" y="-6.42" width="22.22" height="186.02" transform="translate(-27.16 113.3) rotate(-48.81)" fill="#9286ed"/></g><path d="M58.48,101.1a.7.7,0,0,0,1.14-.8.68.68,0,0,0-1-.17A.69.69,0,0,0,58.48,101.1Z" fill="#9395c1"/><path d="M35.32,89.19a.74.74,0,0,1-1-.42.75.75,0,1,1,1,.42Z" fill="#231f49" opacity="0.3" style="mix-blend-mode:multiply"/><path d="M166.2,90a59.29,59.29,0,0,1-27.1,49.76,60.68,60.68,0,0,1-5.82,3.32A58.58,58.58,0,0,1,119.12,148a59.17,59.17,0,0,1-71-51.63c0-.1,0-.22,0-.32h0a59.42,59.42,0,0,1-.3-6A59,59,0,0,1,62.34,51.1s0,0,0,0c.33-.38.67-.76,1-1.13A59.08,59.08,0,0,1,80.22,37.16l.42-.22A59.22,59.22,0,0,1,166.2,90Z" fill="#992e57"/><g opacity="0.4"><path d="M107,30.77a59.23,59.23,0,0,1,32.11,109,60.68,60.68,0,0,1-5.82,3.32A59.19,59.19,0,0,1,48.11,96.32c0-.1,0-.22,0-.32h0a59.42,59.42,0,0,1-.3-6A59,59,0,0,1,62.34,51.1s0,0,0,0c.33-.38.67-.76,1-1.13A59.08,59.08,0,0,1,80.22,37.16l.42-.22A59,59,0,0,1,107,30.77M107,.48h0A88.82,88.82,0,0,0,67.15,9.81l-.28.15-.28.14-.06,0a89,89,0,0,0-25.17,19l-3,2.51L37,34.23c-1.26,1.58-2.47,3.2-3.61,4.85A89.21,89.21,0,0,0,18.12,79.2,89.53,89.53,0,0,0,17.48,90c0,2.44.1,4.9.3,7.36v.49L18,99.66v.06a89.46,89.46,0,0,0,89,79.77,90,90,0,0,0,18.31-1.88,89,89,0,0,0,21.46-7.42,93.29,93.29,0,0,0,8.76-5h0l0,0A89.5,89.5,0,0,0,107,.48Z" fill="#7a55bc"/></g><g opacity="0.6" style="mix-blend-mode:screen"><path d="M107,30.77a59.23,59.23,0,0,1,32.11,109,60.68,60.68,0,0,1-5.82,3.32A59.19,59.19,0,0,1,48.11,96.32c0-.1,0-.22,0-.32h0a59.42,59.42,0,0,1-.3-6A59,59,0,0,1,62.34,51.1s0,0,0,0c.33-.38.67-.76,1-1.13A59.08,59.08,0,0,1,80.22,37.16l.42-.22A59,59,0,0,1,107,30.77m0-11.86h0a70.39,70.39,0,0,0-31.63,7.41l-.11.05-.12.06-.23.13A70.68,70.68,0,0,0,54.64,41.91l-.54.6-1.15,1-.5.94c-1.4,1.67-2.72,3.41-3.94,5.18a68.13,68.13,0,0,0-4.3,7.06A70.37,70.37,0,0,0,36.42,81.4,71.37,71.37,0,0,0,35.91,90c0,2.17.1,4.38.3,6.57v.16l.08.71v.09l0,.14a70.4,70.4,0,0,0,6.58,23.11,71.09,71.09,0,0,0,95.66,32.92,73.94,73.94,0,0,0,7-4A71.07,71.07,0,0,0,107,18.91Z" fill="#cc4b57"/></g><path d="M65.8,111,64,109.38a5.86,5.86,0,0,0-8.71,7.69l-1.67-1.45a58.89,58.89,0,0,1-5.48-19.3,5.92,5.92,0,0,1,2.74,1.34L64.8,109.85A5.68,5.68,0,0,1,65.8,111Z" fill="#cc4b57"/><path d="M93.38,99.18a5.57,5.57,0,0,1-7.87.63l-1.65-1.4a5.57,5.57,0,0,1-8.43,6.26l3.65,3.11a5.59,5.59,0,0,1-7.25,8.5L48.07,96h0A59.3,59.3,0,0,1,62.34,51.1L88.8,73.56a5.58,5.58,0,0,1-3.62,9.84,5.53,5.53,0,0,1-2.34-.52l9.91,8.44A5.59,5.59,0,0,1,93.38,99.18Z" fill="#cc4b57"/><path d="M141.19,52.65a5.31,5.31,0,0,1-7.47.67l-4.82-4a6.7,6.7,0,0,1-6.1,9.45h-.13l5.38,4.49a5.3,5.3,0,0,1-6.79,8.14L81.94,38.55a5.36,5.36,0,0,1-1.3-1.6s0,0,0,0a59.32,59.32,0,0,1,47.1-2.42l12.78,10.66A5.3,5.3,0,0,1,141.19,52.65Z" fill="#cc4b57"/><path d="M122.4,94.71a5.57,5.57,0,0,1-7.86.64L62.37,51.06a59.1,59.1,0,0,1,17.85-13.9l32.59,27.35a5.58,5.58,0,0,1-7.18,8.55L95.42,64.49l26.34,22.36A5.57,5.57,0,0,1,122.4,94.71Z" fill="#cc4b57"/><line x1="73.77" y1="96.96" x2="93.57" y2="113.46" fill="none" stroke="#992e57" stroke-linecap="round" stroke-miterlimit="10" stroke-width="12.52"/><line x1="83.28" y1="76.09" x2="103.36" y2="93.88" fill="none" stroke="#992e57" stroke-linecap="round" stroke-miterlimit="10" stroke-width="13.18"/><line x1="106.16" y1="66.23" x2="128.75" y2="84.78" fill="none" stroke="#992e57" stroke-linecap="round" stroke-miterlimit="10" stroke-width="13.18"/><line x1="122.91" y1="51.73" x2="145.49" y2="70.27" fill="none" stroke="#992e57" stroke-linecap="round" stroke-miterlimit="10" stroke-width="13.18"/><path d="M140.5,152.37c-1.93,2.1-11.08,5.44-11.95,4.78L118.07,148,47.28,87.89c1.3-7.84,4.06-19.41,7.41-25.69l84.16,77.29c.08.08.17.16.25.25C142.84,143.42,144.08,148.47,140.5,152.37Z" fill="#7f2f58"/><path d="M182.34,151.38a2.06,2.06,0,0,0,1.14-.63" fill="#8e394e"/><g mask="url(#mask-2)"><path d="M193.45,188.55c-7.25,0-15.8-3.7-23.25-10.13L13.33,42.94C.1,31.52-3.87,15.91,4.09,6.65A19.38,19.38,0,0,1,17.62.06c6.86-.49,14.14,2.16,20,7.26l11,9.65L35.11,32.4,175.85,153.94l12.81-14.4,11.47,10.21c11.09,9.86,14,24,6.71,32.83a16.72,16.72,0,0,1-11.66,5.9C194.61,188.53,194,188.55,193.45,188.55Z" fill="#9286ed"/></g></g></g></g></svg>